<svg 
 xmlns="http://www.w3.org/2000/svg"
 xmlns:xlink="http://www.w3.org/1999/xlink"
 width="243px" height="18px">
<path fill-rule="evenodd"  fill="rgb(255, 255, 255)"
 d="M239.154,17.664 L239.131,16.129 C239.061,16.308 238.943,16.492 238.779,16.679 C238.615,16.867 238.396,17.060 238.123,17.260 C237.849,17.459 237.494,17.621 237.057,17.746 C236.619,17.871 236.139,17.933 235.615,17.933 C234.060,17.933 232.758,17.363 231.707,16.222 C230.656,15.082 230.131,13.578 230.131,11.711 C230.131,10.859 230.252,10.055 230.494,9.297 C230.736,8.539 231.086,7.863 231.543,7.269 C232.000,6.676 232.599,6.205 233.342,5.857 C234.084,5.510 234.916,5.336 235.838,5.336 C236.666,5.336 237.367,5.506 237.941,5.845 C238.516,6.185 238.916,6.539 239.143,6.906 L239.143,0.590 L242.025,0.590 L242.025,14.453 C242.025,14.500 242.061,15.570 242.131,17.664 L239.154,17.664 ZM238.475,8.799 C237.967,8.060 237.205,7.691 236.189,7.691 C235.510,7.691 234.937,7.875 234.473,8.242 C234.008,8.609 233.676,9.078 233.477,9.648 C233.277,10.219 233.178,10.875 233.178,11.617 C233.178,12.156 233.234,12.656 233.348,13.117 C233.461,13.578 233.633,13.998 233.863,14.377 C234.094,14.756 234.410,15.053 234.813,15.267 C235.215,15.482 235.682,15.590 236.213,15.590 C236.744,15.590 237.209,15.482 237.607,15.267 C238.006,15.053 238.320,14.756 238.551,14.377 C238.781,13.998 238.953,13.582 239.066,13.129 C239.180,12.676 239.236,12.187 239.236,11.664 C239.236,10.492 238.982,9.537 238.475,8.799 ZM224.260,15.883 C224.221,16.055 224.133,16.244 223.996,16.451 C223.859,16.658 223.672,16.879 223.434,17.113 C223.195,17.347 222.871,17.543 222.461,17.699 C222.051,17.855 221.600,17.933 221.107,17.933 C219.654,17.933 218.521,17.517 217.709,16.685 C216.896,15.853 216.490,14.711 216.490,13.258 L216.490,5.640 L219.373,5.640 L219.373,13.211 C219.373,14.008 219.580,14.603 219.994,14.998 C220.408,15.392 220.979,15.590 221.705,15.590 C222.572,15.590 223.215,15.373 223.633,14.939 C224.051,14.506 224.260,13.808 224.260,12.847 L224.260,5.640 L227.166,5.640 L227.166,14.429 L227.307,17.664 L224.307,17.664 L224.260,15.883 ZM212.184,16.023 C211.687,16.609 211.035,17.074 210.227,17.418 C209.418,17.761 208.506,17.933 207.490,17.933 C206.443,17.933 205.510,17.763 204.689,17.424 C203.869,17.084 203.207,16.623 202.703,16.041 C202.199,15.459 201.816,14.795 201.555,14.049 C201.293,13.303 201.162,12.504 201.162,11.652 C201.162,10.785 201.295,9.974 201.561,9.220 C201.826,8.467 202.215,7.799 202.727,7.217 C203.238,6.635 203.902,6.176 204.719,5.840 C205.535,5.504 206.455,5.336 207.479,5.336 C208.525,5.336 209.455,5.502 210.268,5.834 C211.080,6.166 211.732,6.623 212.225,7.205 C212.717,7.787 213.086,8.455 213.332,9.209 C213.578,9.963 213.701,10.785 213.701,11.676 C213.701,12.512 213.572,13.299 213.314,14.037 C213.057,14.775 212.680,15.437 212.184,16.023 ZM209.863,8.793 C209.320,8.058 208.514,7.691 207.443,7.691 C206.717,7.691 206.103,7.873 205.604,8.236 C205.103,8.599 204.742,9.070 204.520,9.648 C204.297,10.226 204.186,10.883 204.186,11.617 C204.186,12.344 204.289,12.996 204.496,13.574 C204.703,14.152 205.059,14.633 205.563,15.015 C206.066,15.398 206.689,15.590 207.432,15.590 C208.002,15.590 208.502,15.482 208.932,15.267 C209.361,15.053 209.699,14.756 209.945,14.377 C210.191,13.998 210.375,13.578 210.496,13.117 C210.617,12.656 210.678,12.156 210.678,11.617 C210.678,10.469 210.406,9.527 209.863,8.793 ZM195.396,0.590 L198.268,0.590 L198.268,17.664 L195.396,17.664 L195.396,0.590 ZM186.889,15.355 C188.600,15.355 190.170,14.781 191.600,13.633 L192.596,15.988 C190.939,17.277 188.971,17.922 186.689,17.922 C185.564,17.922 184.494,17.728 183.479,17.342 C182.463,16.955 181.557,16.402 180.760,15.683 C179.963,14.965 179.328,14.041 178.855,12.912 C178.383,11.783 178.146,10.527 178.146,9.144 C178.146,7.988 178.305,6.920 178.621,5.939 C178.938,4.959 179.365,4.127 179.904,3.443 C180.443,2.760 181.068,2.176 181.779,1.691 C182.490,1.207 183.240,0.851 184.029,0.625 C184.818,0.398 185.627,0.285 186.455,0.285 C188.689,0.285 190.588,0.898 192.150,2.125 L190.990,4.199 C189.693,3.301 188.264,2.851 186.701,2.851 C185.975,2.851 185.285,2.996 184.633,3.285 C183.980,3.574 183.404,3.980 182.904,4.504 C182.404,5.027 182.006,5.687 181.709,6.484 C181.412,7.281 181.264,8.156 181.264,9.109 C181.264,10.992 181.795,12.504 182.857,13.644 C183.920,14.785 185.264,15.355 186.889,15.355 ZM165.361,0.590 L168.232,0.590 L168.232,17.664 L165.361,17.664 L165.361,0.590 ZM160.914,16.023 C160.418,16.609 159.766,17.074 158.957,17.418 C158.148,17.761 157.236,17.933 156.221,17.933 C155.174,17.933 154.240,17.763 153.420,17.424 C152.600,17.084 151.938,16.623 151.434,16.041 C150.930,15.459 150.547,14.795 150.285,14.049 C150.023,13.303 149.893,12.504 149.893,11.652 C149.893,10.785 150.025,9.974 150.291,9.220 C150.557,8.467 150.945,7.799 151.457,7.217 C151.969,6.635 152.633,6.176 153.449,5.840 C154.266,5.504 155.185,5.336 156.209,5.336 C157.256,5.336 158.185,5.502 158.998,5.834 C159.810,6.166 160.463,6.623 160.955,7.205 C161.447,7.787 161.816,8.455 162.062,9.209 C162.309,9.963 162.432,10.785 162.432,11.676 C162.432,12.512 162.303,13.299 162.045,14.037 C161.787,14.775 161.410,15.437 160.914,16.023 ZM158.594,8.793 C158.051,8.058 157.244,7.691 156.174,7.691 C155.447,7.691 154.834,7.873 154.334,8.236 C153.834,8.599 153.473,9.070 153.250,9.648 C153.027,10.226 152.916,10.883 152.916,11.617 C152.916,12.344 153.019,12.996 153.227,13.574 C153.433,14.152 153.789,14.633 154.293,15.015 C154.797,15.398 155.420,15.590 156.162,15.590 C156.732,15.590 157.232,15.482 157.662,15.267 C158.092,15.053 158.430,14.756 158.676,14.377 C158.922,13.998 159.105,13.578 159.227,13.117 C159.348,12.656 159.408,12.156 159.408,11.617 C159.408,10.469 159.137,9.527 158.594,8.793 ZM147.010,7.797 C146.205,7.797 145.549,8.058 145.041,8.582 C144.533,9.105 144.279,9.863 144.279,10.855 L144.279,17.664 L141.385,17.664 L141.385,8.687 C141.385,8.219 141.365,7.730 141.326,7.222 C141.287,6.715 141.248,6.324 141.209,6.051 L141.150,5.640 L144.244,5.640 L144.244,7.222 C144.721,6.597 145.195,6.127 145.668,5.810 C146.141,5.494 146.674,5.336 147.268,5.336 C147.619,5.336 148.018,5.394 148.463,5.511 L148.463,8.054 C147.939,7.883 147.455,7.797 147.010,7.797 ZM136.322,17.617 C135.978,17.594 135.625,17.543 135.262,17.465 C134.898,17.387 134.590,17.283 134.336,17.154 C134.082,17.025 133.838,16.851 133.604,16.633 C133.369,16.414 133.182,16.150 133.041,15.842 C132.900,15.533 132.789,15.164 132.707,14.734 C132.625,14.305 132.584,13.812 132.584,13.258 L132.584,7.586 L130.076,7.586 L130.076,5.640 L132.701,5.640 L132.701,2.828 L135.479,1.972 L135.479,5.640 L138.619,5.640 L138.619,7.586 L135.479,7.586 L135.479,13.433 C135.479,13.808 135.508,14.111 135.566,14.342 C135.625,14.572 135.713,14.763 135.830,14.916 C135.947,15.068 136.144,15.179 136.422,15.250 C136.699,15.320 137.002,15.367 137.330,15.390 C137.658,15.414 138.119,15.426 138.713,15.426 L138.713,17.652 L137.541,17.652 C137.072,17.652 136.666,17.640 136.322,17.617 ZM125.635,10.609 C125.635,9.547 125.469,8.795 125.137,8.353 C124.805,7.912 124.256,7.691 123.490,7.691 C123.209,7.691 122.900,7.754 122.564,7.879 C122.228,8.004 121.902,8.177 121.586,8.400 C121.270,8.623 121.006,8.916 120.795,9.279 C120.584,9.642 120.479,10.039 120.479,10.469 L120.479,17.664 L117.572,17.664 L117.572,10.222 C117.572,9.371 117.553,8.564 117.514,7.802 C117.474,7.041 117.435,6.492 117.396,6.156 L117.338,5.640 L120.420,5.640 L120.420,7.246 C120.834,6.621 121.387,6.146 122.078,5.822 C122.770,5.498 123.439,5.336 124.088,5.336 C124.783,5.336 125.393,5.428 125.916,5.611 C126.439,5.795 126.902,6.092 127.305,6.502 C127.707,6.912 128.014,7.476 128.225,8.195 C128.436,8.914 128.541,9.785 128.541,10.808 L128.541,17.664 L125.635,17.664 L125.635,10.609 ZM112.937,16.023 C112.441,16.609 111.789,17.074 110.980,17.418 C110.172,17.761 109.260,17.933 108.244,17.933 C107.197,17.933 106.264,17.763 105.443,17.424 C104.623,17.084 103.961,16.623 103.457,16.041 C102.953,15.459 102.570,14.795 102.309,14.049 C102.047,13.303 101.916,12.504 101.916,11.652 C101.916,10.785 102.049,9.974 102.314,9.220 C102.580,8.467 102.969,7.799 103.480,7.217 C103.992,6.635 104.656,6.176 105.473,5.840 C106.289,5.504 107.209,5.336 108.232,5.336 C109.279,5.336 110.209,5.502 111.021,5.834 C111.834,6.166 112.486,6.623 112.979,7.205 C113.471,7.787 113.840,8.455 114.086,9.209 C114.332,9.963 114.455,10.785 114.455,11.676 C114.455,12.512 114.326,13.299 114.068,14.037 C113.811,14.775 113.434,15.437 112.937,16.023 ZM110.617,8.793 C110.074,8.058 109.268,7.691 108.197,7.691 C107.471,7.691 106.857,7.873 106.357,8.236 C105.857,8.599 105.496,9.070 105.273,9.648 C105.051,10.226 104.939,10.883 104.939,11.617 C104.939,12.344 105.043,12.996 105.250,13.574 C105.457,14.152 105.812,14.633 106.316,15.015 C106.820,15.398 107.443,15.590 108.186,15.590 C108.756,15.590 109.256,15.482 109.686,15.267 C110.115,15.053 110.453,14.756 110.699,14.377 C110.945,13.998 111.129,13.578 111.250,13.117 C111.371,12.656 111.432,12.156 111.432,11.617 C111.432,10.469 111.160,9.527 110.617,8.793 ZM93.807,15.355 C95.518,15.355 97.088,14.781 98.518,13.633 L99.514,15.988 C97.857,17.277 95.889,17.922 93.607,17.922 C92.482,17.922 91.412,17.728 90.396,17.342 C89.381,16.955 88.475,16.402 87.678,15.683 C86.881,14.965 86.246,14.041 85.773,12.912 C85.301,11.783 85.064,10.527 85.064,9.144 C85.064,7.988 85.223,6.920 85.539,5.939 C85.855,4.959 86.283,4.127 86.822,3.443 C87.361,2.760 87.986,2.176 88.697,1.691 C89.408,1.207 90.158,0.851 90.947,0.625 C91.736,0.398 92.545,0.285 93.373,0.285 C95.607,0.285 97.506,0.898 99.068,2.125 L97.908,4.199 C96.611,3.301 95.182,2.851 93.619,2.851 C92.893,2.851 92.203,2.996 91.551,3.285 C90.898,3.574 90.322,3.980 89.822,4.504 C89.322,5.027 88.924,5.687 88.627,6.484 C88.330,7.281 88.182,8.156 88.182,9.109 C88.182,10.992 88.713,12.504 89.775,13.644 C90.838,14.785 92.182,15.355 93.807,15.355 ZM74.582,6.804 C75.062,6.988 75.782,7.184 76.742,7.392 C78.294,7.728 79.514,8.132 80.402,8.604 C81.290,9.076 81.918,9.628 82.286,10.260 C82.654,10.892 82.838,11.648 82.838,12.528 C82.838,14.192 82.190,15.500 80.894,16.452 C79.598,17.404 77.774,17.880 75.422,17.880 C74.142,17.880 72.878,17.712 71.630,17.376 C70.382,17.040 69.366,16.584 68.582,16.008 L69.998,12.816 C70.830,13.344 71.714,13.748 72.650,14.028 C73.586,14.308 74.526,14.448 75.470,14.448 C76.430,14.448 77.166,14.316 77.678,14.052 C78.190,13.788 78.446,13.416 78.446,12.936 C78.446,12.504 78.214,12.148 77.750,11.868 C77.286,11.588 76.414,11.312 75.134,11.040 C73.518,10.720 72.262,10.324 71.366,9.852 C70.470,9.380 69.842,8.824 69.482,8.184 C69.122,7.544 68.942,6.768 68.942,5.856 C68.942,4.816 69.238,3.876 69.830,3.036 C70.422,2.196 71.254,1.540 72.326,1.068 C73.398,0.596 74.622,0.360 75.998,0.360 C77.230,0.360 78.426,0.532 79.586,0.876 C80.746,1.220 81.654,1.672 82.310,2.232 L80.918,5.424 C80.166,4.896 79.374,4.492 78.542,4.212 C77.710,3.932 76.878,3.792 76.046,3.792 C75.230,3.792 74.574,3.948 74.078,4.260 C73.582,4.572 73.334,4.992 73.334,5.520 C73.334,5.808 73.422,6.048 73.598,6.240 C73.774,6.432 74.102,6.620 74.582,6.804 ZM54.974,0.576 L67.166,0.576 L67.166,4.032 L59.366,4.032 L59.366,7.248 L66.662,7.248 L66.662,10.704 L59.366,10.704 L59.366,14.208 L67.166,14.208 L67.166,17.664 L54.974,17.664 L54.974,0.576 ZM41.079,0.576 L45.591,0.576 L45.591,14.016 L52.815,14.016 L52.815,17.664 L41.079,17.664 L41.079,0.576 ZM33.495,0.576 L38.007,0.576 L38.007,17.664 L33.495,17.664 L33.495,0.576 ZM23.919,7.224 L30.927,7.224 L30.927,10.728 L23.919,10.728 L23.919,17.664 L19.479,17.664 L19.479,0.576 L31.407,0.576 L31.407,4.104 L23.919,4.104 L23.919,7.224 ZM13.407,17.664 L9.591,12.336 L5.751,17.664 L0.519,17.664 L7.023,9.024 L0.663,0.576 L5.871,0.576 L9.567,5.760 L13.335,0.576 L18.567,0.576 L12.135,9.024 L18.663,17.664 L13.407,17.664 Z"/>
</svg>