<svg xmlns="http://www.w3.org/2000/svg" xmlns:xlink="http://www.w3.org/1999/xlink" width="242px" height="18px">
    <path fill-rule="evenodd" fill="rgb(0, 6, 56)" d="M238.654,17.664 L238.631,16.129 C238.561,16.308 238.443,16.492 238.279,16.679 C238.115,16.867 237.896,17.060 237.623,17.260 C237.349,17.459 236.994,17.621 236.557,17.746 C236.119,17.871 235.639,17.933 235.115,17.933 C233.561,17.933 232.258,17.363 231.207,16.222 C230.156,15.082 229.631,13.578 229.631,11.711 C229.631,10.859 229.752,10.055 229.994,9.297 C230.236,8.539 230.586,7.863 231.043,7.269 C231.500,6.676 232.099,6.205 232.842,5.857 C233.584,5.510 234.416,5.336 235.338,5.336 C236.166,5.336 236.867,5.506 237.441,5.845 C238.016,6.185 238.416,6.539 238.643,6.906 L238.643,0.590 L241.525,0.590 L241.525,14.453 C241.525,14.500 241.561,15.570 241.631,17.664 L238.654,17.664 ZM237.975,8.799 C237.467,8.060 236.705,7.691 235.689,7.691 C235.010,7.691 234.437,7.875 233.973,8.242 C233.508,8.609 233.176,9.078 232.977,9.648 C232.777,10.219 232.678,10.875 232.678,11.617 C232.678,12.156 232.734,12.656 232.848,13.117 C232.961,13.578 233.133,13.998 233.363,14.377 C233.594,14.756 233.910,15.053 234.313,15.267 C234.715,15.482 235.182,15.590 235.713,15.590 C236.244,15.590 236.709,15.482 237.107,15.267 C237.506,15.053 237.820,14.756 238.051,14.377 C238.281,13.998 238.453,13.582 238.566,13.129 C238.680,12.676 238.736,12.187 238.736,11.664 C238.736,10.492 238.482,9.537 237.975,8.799 ZM223.760,15.883 C223.721,16.055 223.633,16.244 223.496,16.451 C223.359,16.658 223.172,16.879 222.934,17.113 C222.695,17.347 222.371,17.543 221.961,17.699 C221.551,17.855 221.100,17.933 220.607,17.933 C219.154,17.933 218.021,17.517 217.209,16.685 C216.396,15.853 215.990,14.711 215.990,13.258 L215.990,5.640 L218.873,5.640 L218.873,13.211 C218.873,14.008 219.080,14.603 219.494,14.998 C219.908,15.392 220.479,15.590 221.205,15.590 C222.072,15.590 222.715,15.373 223.133,14.939 C223.551,14.506 223.760,13.808 223.760,12.847 L223.760,5.640 L226.666,5.640 L226.666,14.429 L226.807,17.664 L223.807,17.664 L223.760,15.883 ZM211.684,16.023 C211.187,16.609 210.535,17.074 209.727,17.418 C208.918,17.761 208.006,17.933 206.990,17.933 C205.943,17.933 205.010,17.763 204.189,17.424 C203.369,17.084 202.707,16.623 202.203,16.041 C201.699,15.459 201.316,14.795 201.055,14.049 C200.793,13.303 200.662,12.504 200.662,11.652 C200.662,10.785 200.795,9.974 201.061,9.220 C201.326,8.467 201.715,7.799 202.227,7.217 C202.738,6.635 203.402,6.176 204.219,5.840 C205.035,5.504 205.955,5.336 206.979,5.336 C208.025,5.336 208.955,5.502 209.768,5.834 C210.580,6.166 211.232,6.623 211.725,7.205 C212.217,7.787 212.586,8.455 212.832,9.209 C213.078,9.963 213.201,10.785 213.201,11.676 C213.201,12.512 213.072,13.299 212.814,14.037 C212.557,14.775 212.180,15.437 211.684,16.023 ZM209.363,8.793 C208.820,8.058 208.014,7.691 206.943,7.691 C206.217,7.691 205.603,7.873 205.104,8.236 C204.604,8.599 204.242,9.070 204.020,9.648 C203.797,10.226 203.686,10.883 203.686,11.617 C203.686,12.344 203.789,12.996 203.996,13.574 C204.203,14.152 204.559,14.633 205.062,15.015 C205.566,15.398 206.189,15.590 206.932,15.590 C207.502,15.590 208.002,15.482 208.432,15.267 C208.861,15.053 209.199,14.756 209.445,14.377 C209.691,13.998 209.875,13.578 209.996,13.117 C210.117,12.656 210.178,12.156 210.178,11.617 C210.178,10.469 209.906,9.527 209.363,8.793 ZM194.896,0.590 L197.768,0.590 L197.768,17.664 L194.896,17.664 L194.896,0.590 ZM186.389,15.355 C188.100,15.355 189.670,14.781 191.100,13.633 L192.096,15.988 C190.439,17.277 188.471,17.922 186.189,17.922 C185.064,17.922 183.994,17.728 182.979,17.342 C181.963,16.955 181.057,16.402 180.260,15.683 C179.463,14.965 178.828,14.041 178.355,12.912 C177.883,11.783 177.646,10.527 177.646,9.144 C177.646,7.988 177.805,6.920 178.121,5.939 C178.438,4.959 178.865,4.127 179.404,3.443 C179.943,2.760 180.568,2.176 181.279,1.691 C181.990,1.207 182.740,0.851 183.529,0.625 C184.318,0.398 185.127,0.285 185.955,0.285 C188.189,0.285 190.088,0.898 191.650,2.125 L190.490,4.199 C189.193,3.301 187.764,2.851 186.201,2.851 C185.475,2.851 184.785,2.996 184.133,3.285 C183.480,3.574 182.904,3.980 182.404,4.504 C181.904,5.027 181.506,5.687 181.209,6.484 C180.912,7.281 180.764,8.156 180.764,9.109 C180.764,10.992 181.295,12.504 182.357,13.644 C183.420,14.785 184.764,15.355 186.389,15.355 ZM164.861,0.590 L167.732,0.590 L167.732,17.664 L164.861,17.664 L164.861,0.590 ZM160.414,16.023 C159.918,16.609 159.266,17.074 158.457,17.418 C157.648,17.761 156.736,17.933 155.721,17.933 C154.674,17.933 153.740,17.763 152.920,17.424 C152.100,17.084 151.437,16.623 150.934,16.041 C150.430,15.459 150.047,14.795 149.785,14.049 C149.523,13.303 149.393,12.504 149.393,11.652 C149.393,10.785 149.525,9.974 149.791,9.220 C150.057,8.467 150.445,7.799 150.957,7.217 C151.469,6.635 152.133,6.176 152.949,5.840 C153.766,5.504 154.685,5.336 155.709,5.336 C156.756,5.336 157.685,5.502 158.498,5.834 C159.310,6.166 159.963,6.623 160.455,7.205 C160.947,7.787 161.316,8.455 161.563,9.209 C161.809,9.963 161.932,10.785 161.932,11.676 C161.932,12.512 161.803,13.299 161.545,14.037 C161.287,14.775 160.910,15.437 160.414,16.023 ZM158.094,8.793 C157.551,8.058 156.744,7.691 155.674,7.691 C154.947,7.691 154.334,7.873 153.834,8.236 C153.334,8.599 152.973,9.070 152.750,9.648 C152.527,10.226 152.416,10.883 152.416,11.617 C152.416,12.344 152.519,12.996 152.727,13.574 C152.933,14.152 153.289,14.633 153.793,15.015 C154.297,15.398 154.920,15.590 155.662,15.590 C156.232,15.590 156.732,15.482 157.162,15.267 C157.592,15.053 157.930,14.756 158.176,14.377 C158.422,13.998 158.605,13.578 158.727,13.117 C158.848,12.656 158.908,12.156 158.908,11.617 C158.908,10.469 158.637,9.527 158.094,8.793 ZM146.510,7.797 C145.705,7.797 145.049,8.058 144.541,8.582 C144.033,9.105 143.779,9.863 143.779,10.855 L143.779,17.664 L140.885,17.664 L140.885,8.687 C140.885,8.219 140.865,7.730 140.826,7.222 C140.787,6.715 140.748,6.324 140.709,6.051 L140.650,5.640 L143.744,5.640 L143.744,7.222 C144.221,6.597 144.695,6.127 145.168,5.810 C145.641,5.494 146.174,5.336 146.768,5.336 C147.119,5.336 147.518,5.394 147.963,5.511 L147.963,8.054 C147.439,7.883 146.955,7.797 146.510,7.797 ZM135.822,17.617 C135.478,17.594 135.125,17.543 134.762,17.465 C134.398,17.387 134.090,17.283 133.836,17.154 C133.582,17.025 133.338,16.851 133.104,16.633 C132.869,16.414 132.682,16.150 132.541,15.842 C132.400,15.533 132.289,15.164 132.207,14.734 C132.125,14.305 132.084,13.812 132.084,13.258 L132.084,7.586 L129.576,7.586 L129.576,5.640 L132.201,5.640 L132.201,2.828 L134.979,1.972 L134.979,5.640 L138.119,5.640 L138.119,7.586 L134.979,7.586 L134.979,13.433 C134.979,13.808 135.008,14.111 135.066,14.342 C135.125,14.572 135.213,14.763 135.330,14.916 C135.447,15.068 135.644,15.179 135.922,15.250 C136.199,15.320 136.502,15.367 136.830,15.390 C137.158,15.414 137.619,15.426 138.213,15.426 L138.213,17.652 L137.041,17.652 C136.572,17.652 136.166,17.640 135.822,17.617 ZM125.135,10.609 C125.135,9.547 124.969,8.795 124.637,8.353 C124.305,7.912 123.756,7.691 122.990,7.691 C122.709,7.691 122.400,7.754 122.064,7.879 C121.728,8.004 121.402,8.177 121.086,8.400 C120.770,8.623 120.506,8.916 120.295,9.279 C120.084,9.642 119.979,10.039 119.979,10.469 L119.979,17.664 L117.072,17.664 L117.072,10.222 C117.072,9.371 117.053,8.564 117.014,7.802 C116.974,7.041 116.935,6.492 116.896,6.156 L116.838,5.640 L119.920,5.640 L119.920,7.246 C120.334,6.621 120.887,6.146 121.578,5.822 C122.270,5.498 122.939,5.336 123.588,5.336 C124.283,5.336 124.893,5.428 125.416,5.611 C125.939,5.795 126.402,6.092 126.805,6.502 C127.207,6.912 127.514,7.476 127.725,8.195 C127.936,8.914 128.041,9.785 128.041,10.808 L128.041,17.664 L125.135,17.664 L125.135,10.609 ZM112.437,16.023 C111.941,16.609 111.289,17.074 110.480,17.418 C109.672,17.761 108.760,17.933 107.744,17.933 C106.697,17.933 105.764,17.763 104.943,17.424 C104.123,17.084 103.461,16.623 102.957,16.041 C102.453,15.459 102.070,14.795 101.809,14.049 C101.547,13.303 101.416,12.504 101.416,11.652 C101.416,10.785 101.549,9.974 101.814,9.220 C102.080,8.467 102.469,7.799 102.980,7.217 C103.492,6.635 104.156,6.176 104.973,5.840 C105.789,5.504 106.709,5.336 107.732,5.336 C108.779,5.336 109.709,5.502 110.521,5.834 C111.334,6.166 111.986,6.623 112.479,7.205 C112.971,7.787 113.340,8.455 113.586,9.209 C113.832,9.963 113.955,10.785 113.955,11.676 C113.955,12.512 113.826,13.299 113.568,14.037 C113.311,14.775 112.934,15.437 112.437,16.023 ZM110.117,8.793 C109.574,8.058 108.768,7.691 107.697,7.691 C106.971,7.691 106.357,7.873 105.857,8.236 C105.357,8.599 104.996,9.070 104.773,9.648 C104.551,10.226 104.439,10.883 104.439,11.617 C104.439,12.344 104.543,12.996 104.750,13.574 C104.957,14.152 105.313,14.633 105.816,15.015 C106.320,15.398 106.943,15.590 107.686,15.590 C108.256,15.590 108.756,15.482 109.186,15.267 C109.615,15.053 109.953,14.756 110.199,14.377 C110.445,13.998 110.629,13.578 110.750,13.117 C110.871,12.656 110.932,12.156 110.932,11.617 C110.932,10.469 110.660,9.527 110.117,8.793 ZM93.307,15.355 C95.018,15.355 96.588,14.781 98.018,13.633 L99.014,15.988 C97.357,17.277 95.389,17.922 93.107,17.922 C91.982,17.922 90.912,17.728 89.896,17.342 C88.881,16.955 87.975,16.402 87.178,15.683 C86.381,14.965 85.746,14.041 85.273,12.912 C84.801,11.783 84.564,10.527 84.564,9.144 C84.564,7.988 84.723,6.920 85.039,5.939 C85.355,4.959 85.783,4.127 86.322,3.443 C86.861,2.760 87.486,2.176 88.197,1.691 C88.908,1.207 89.658,0.851 90.447,0.625 C91.236,0.398 92.045,0.285 92.873,0.285 C95.107,0.285 97.006,0.898 98.568,2.125 L97.408,4.199 C96.111,3.301 94.682,2.851 93.119,2.851 C92.393,2.851 91.703,2.996 91.051,3.285 C90.398,3.574 89.822,3.980 89.322,4.504 C88.822,5.027 88.424,5.687 88.127,6.484 C87.830,7.281 87.682,8.156 87.682,9.109 C87.682,10.992 88.213,12.504 89.275,13.644 C90.338,14.785 91.682,15.355 93.307,15.355 ZM74.082,6.804 C74.562,6.988 75.282,7.184 76.242,7.392 C77.794,7.728 79.014,8.132 79.902,8.604 C80.790,9.076 81.418,9.628 81.786,10.260 C82.154,10.892 82.338,11.648 82.338,12.528 C82.338,14.192 81.690,15.500 80.394,16.452 C79.098,17.404 77.274,17.880 74.922,17.880 C73.642,17.880 72.378,17.712 71.130,17.376 C69.882,17.040 68.866,16.584 68.082,16.008 L69.498,12.816 C70.330,13.344 71.214,13.748 72.150,14.028 C73.086,14.308 74.026,14.448 74.970,14.448 C75.930,14.448 76.666,14.316 77.178,14.052 C77.690,13.788 77.946,13.416 77.946,12.936 C77.946,12.504 77.714,12.148 77.250,11.868 C76.786,11.588 75.914,11.312 74.634,11.040 C73.018,10.720 71.762,10.324 70.866,9.852 C69.970,9.380 69.342,8.824 68.982,8.184 C68.622,7.544 68.442,6.768 68.442,5.856 C68.442,4.816 68.738,3.876 69.330,3.036 C69.922,2.196 70.754,1.540 71.826,1.068 C72.898,0.596 74.122,0.360 75.498,0.360 C76.730,0.360 77.926,0.532 79.086,0.876 C80.246,1.220 81.154,1.672 81.810,2.232 L80.418,5.424 C79.666,4.896 78.874,4.492 78.042,4.212 C77.210,3.932 76.378,3.792 75.546,3.792 C74.730,3.792 74.074,3.948 73.578,4.260 C73.082,4.572 72.834,4.992 72.834,5.520 C72.834,5.808 72.922,6.048 73.098,6.240 C73.274,6.432 73.602,6.620 74.082,6.804 ZM54.474,0.576 L66.667,0.576 L66.667,4.032 L58.866,4.032 L58.866,7.248 L66.162,7.248 L66.162,10.704 L58.866,10.704 L58.866,14.208 L66.667,14.208 L66.667,17.664 L54.474,17.664 L54.474,0.576 ZM40.579,0.576 L45.091,0.576 L45.091,14.016 L52.315,14.016 L52.315,17.664 L40.579,17.664 L40.579,0.576 ZM32.995,0.576 L37.507,0.576 L37.507,17.664 L32.995,17.664 L32.995,0.576 ZM23.419,7.224 L30.427,7.224 L30.427,10.728 L23.419,10.728 L23.419,17.664 L18.979,17.664 L18.979,0.576 L30.907,0.576 L30.907,4.104 L23.419,4.104 L23.419,7.224 ZM12.907,17.664 L9.091,12.336 L5.251,17.664 L0.019,17.664 L6.523,9.024 L0.163,0.576 L5.371,0.576 L9.067,5.760 L12.835,0.576 L18.067,0.576 L11.635,9.024 L18.163,17.664 L12.907,17.664 Z" />
</svg>
